<svg xmlns="http://www.w3.org/2000/svg" width="294" height="163" viewBox="0 0 294 163">
  <g id="Group_1" data-name="Group 1" transform="translate(-67 -380)">
    <path id="icons8_wedding_rings_2" d="M52.688,4.188c-29,0-52.5,22.385-52.5,50s23.5,50,52.5,50a54.756,54.756,0,0,0,16.942-2.659A57.914,57.914,0,0,1,53.246,87.166h-.559c-19.082,0-34.628-14.783-34.628-32.979S33.605,21.209,52.688,21.209,87.315,36.014,87.315,54.188a32,32,0,0,1-6.888,19.681A29.023,29.023,0,0,0,96.81,81.138a47.905,47.905,0,0,0,8.377-26.95C105.187,26.572,81.684,4.188,52.688,4.188Zm47.66,0a54.734,54.734,0,0,0-16.941,2.66A57.916,57.916,0,0,1,99.789,21.209a4.687,4.687,0,0,1,.558,0c19.082,0,34.628,14.783,34.628,32.979s-15.545,32.979-34.628,32.979S65.719,72.361,65.719,54.188a31.99,31.99,0,0,1,6.889-19.681,29.025,29.025,0,0,0-16.383-7.27,47.905,47.905,0,0,0-8.378,26.95c0,27.615,23.5,50,52.5,50s52.5-22.385,52.5-50S129.343,4.188,100.347,4.188Z" transform="translate(137.813 375.813)"/>
    <text id="HouseBonds" transform="translate(67 530)" font-size="50" font-family="SegoeUI-Bold, Segoe UI" font-weight="700"><tspan x="0" y="0">HouseBonds</tspan></text>
  </g>
</svg>
