<svg xmlns="http://www.w3.org/2000/svg" xmlns:xlink="http://www.w3.org/1999/xlink" viewBox="0 0 26 26"><path d="M9 4.1875C4.132813 4.1875 0.1875 8.132813 0.1875 13C0.1875 17.867188 4.132813 21.8125 9 21.8125C9.996094 21.8125 10.949219 21.648438 11.84375 21.34375C10.777344 20.683594 9.835938 19.820313 9.09375 18.8125C9.058594 18.8125 9.035156 18.8125 9 18.8125C5.796875 18.8125 3.1875 16.207031 3.1875 13C3.1875 9.792969 5.796875 7.1875 9 7.1875C12.203125 7.1875 14.8125 9.796875 14.8125 13C14.8125 14.296875 14.375 15.5 13.65625 16.46875C14.386719 17.175781 15.34375 17.617188 16.40625 17.75C17.289063 16.378906 17.8125 14.753906 17.8125 13C17.8125 8.132813 13.867188 4.1875 9 4.1875 Z M 17 4.1875C16.003906 4.1875 15.050781 4.351563 14.15625 4.65625C15.222656 5.316406 16.164063 6.179688 16.90625 7.1875C16.941406 7.183594 16.964844 7.1875 17 7.1875C20.203125 7.1875 22.8125 9.792969 22.8125 13C22.8125 16.207031 20.203125 18.8125 17 18.8125C13.796875 18.8125 11.1875 16.203125 11.1875 13C11.1875 11.703125 11.625 10.5 12.34375 9.53125C11.613281 8.824219 10.65625 8.382813 9.59375 8.25C8.710938 9.621094 8.1875 11.246094 8.1875 13C8.1875 17.867188 12.132813 21.8125 17 21.8125C21.867188 21.8125 25.8125 17.867188 25.8125 13C25.8125 8.132813 21.867188 4.1875 17 4.1875Z"/></svg>