<svg xmlns="http://www.w3.org/2000/svg" xmlns:xlink="http://www.w3.org/1999/xlink" viewBox="0 0 50 50"><path d="M34.033203 3C33.937969 2.9968281 33.841844 3.00675 33.746094 3.03125L15.552734 7.8203125L28.410156 26.820312L47.628906 20.746094C47.787906 20.612094 47.918703 20.449188 47.970703 20.242188C48.047703 19.936187 47.975344 19.613141 47.777344 19.369141L34.777344 3.3691406C34.591344 3.1403906 34.318906 3.0095156 34.033203 3 z M 13.755859 8.734375L2.359375 18.232422C1.935375 18.586422 1.8774687 19.216625 2.2304688 19.640625C2.4294688 19.877625 2.7149531 20 3.0019531 20C3.2279531 20 3.452625 19.923578 3.640625 19.767578L4 19.46875L3.9921875 36.371094C3.9921875 36.757094 4.2145 37.107437 4.5625 37.273438L25 47.005859L25.048828 25.421875L13.755859 8.734375 z M 14.46875 20.015625C15.31675 20.090625 16.025359 20.645844 16.318359 21.464844L18.369141 26.660156L19.714844 26.220703L18.714844 30.554688L14.714844 27.855469L16.46875 27.28125L14.4375 22.138672C14.4085 22.057672 14.360922 22.013813 14.294922 22.007812C14.290922 22.007812 14.28525 22.005859 14.28125 22.005859C14.22825 22.005859 14.186391 22.035656 14.150391 22.097656L12.779297 24.494141L11.080078 23.435547L12.412109 21.105469C12.839109 20.358469 13.62075 19.941625 14.46875 20.015625 z M 46 23.359375L28.302734 28.953125C28.300734 28.954125 28.296922 28.954078 28.294922 28.955078C28.211922 28.980078 28.128922 28.990141 28.044922 28.994141C28.029922 28.994141 28.014 29 28 29C27.995 29 27.989375 28.998047 27.984375 28.998047C27.895375 28.997047 27.808656 28.980078 27.722656 28.955078C27.694656 28.947078 27.668625 28.936781 27.640625 28.925781C27.577625 28.901781 27.517937 28.870984 27.460938 28.833984C27.435938 28.817984 27.410719 28.802203 27.386719 28.783203C27.329719 28.739203 27.279422 28.686906 27.232422 28.628906C27.217422 28.610906 27.199547 28.596172 27.185547 28.576172C27.181547 28.570172 27.175875 28.566547 27.171875 28.560547L27.041016 28.367188L27 47L45.419922 38.275391C45.769922 38.109391 45.992188 37.757094 45.992188 37.371094L46 23.359375 z M 11.669922 24.626953L12.015625 29.261719L10.533203 28.339844L9.0332031 31.039062C8.9822031 31.128063 9.0007188 31.217953 9.0117188 31.251953C9.0217187 31.286953 9.047375 31.350813 9.109375 31.382812L11 32.527344L11 34.787109L8.1816406 33.154297C7.6506406 32.876297 7.2637969 32.3995 7.0917969 31.8125C6.9197969 31.2215 6.9948281 30.578875 7.2988281 30.046875L8.8359375 27.28125L7.3554688 26.361328L11.669922 24.626953 z M 19.900391 31.005859L21.863281 36.005859C22.180281 36.892859 21.931516 37.860656 21.228516 38.472656C20.828516 38.819656 20.331078 39 19.830078 39C19.494078 39 19.155797 38.919859 18.841797 38.755859L15 36.886719L15 38.523438L12.013672 34.619141L15 32.523438L15 34.626953L19.771484 36.982422C19.805484 37.000422 19.848969 37.023891 19.917969 36.962891C19.955969 36.929891 20.037469 36.836688 19.980469 36.679688L18 31.628906L19.900391 31.005859 z"/></svg>